# xmcd CD database file
# Copyright (C) 1993-1998 Ti Kan
#
# Track frame offsets:
#	150
#	17525
#	36135
#	57360
#	76537
#	90372
#	111007
#	126967
#	146455
#	164415
#	184750
#	204600
#
# Disc length: 2923 seconds
#
# Revision: 1
# Processed by: cddbd v1.4b41PL1 Copyright (c) Steve Scherf et al.
# Submitted via: EasyCD 2.21 - (C) 1996 Greg Leichner
#
DISCID=920b690c
DTITLE=Kim Richey - Bitter Sweet
DYEAR=1900
DGENRE=
TTITLE0=Every River
TTITLE1=I'm Alright
TTITLE2=Wildest Dream
TTITLE3=Straight As The Crow Flies
TTITLE4=I Know
TTITLE5=Fallin'
TTITLE6=To Tell The Truth
TTITLE7=My Whole World
TTITLE8=The Lonesome Side of Town
TTITLE9=Don't Let Me Down Easy
TTITLE10=Let It Roll
TTITLE11=Why Can't I Say Goodnight
EXTD=
EXTT0=
EXTT1=
EXTT2=
EXTT3=
EXTT4=
EXTT5=
EXTT6=
EXTT7=
EXTT8=
EXTT9=
EXTT10=
EXTT11=
PLAYORDER=
